<mxfile host="app.diagrams.net" modified="2023-11-28T18:07:17.609Z" agent="Mozilla/5.0 (Macintosh; Intel Mac OS X 10_15_7) AppleWebKit/605.1.15 (KHTML, like Gecko) Version/17.1 Safari/605.1.15" version="22.1.4" etag="5nqXnN1BJp9Wo9R0rR2T" type="github">
  <diagram name="Page-1" id="kkW4f17jAEqItrW0K9Vb">
    <mxGraphModel>
      <root>
        <mxCell id="0" />
        <mxCell id="1" parent="0" />
      </root>
    </mxGraphModel>
  </diagram>
</mxfile>
